<svg width="48" height="48" viewBox="0 0 48 48" fill="none" xmlns="http://www.w3.org/2000/svg">
<g id="carbon:auto-scroll">
<path id="Vector" d="M18 24C18 25.1867 18.3519 26.3467 19.0112 27.3334C19.6705 28.3201 20.6075 29.0892 21.7039 29.5433C22.8003 29.9974 24.0067 30.1162 25.1705 29.8847C26.3344 29.6532 27.4035 29.0818 28.2426 28.2426C29.0818 27.4035 29.6532 26.3344 29.8847 25.1705C30.1162 24.0067 29.9974 22.8003 29.5433 21.7039C29.0892 20.6075 28.3201 19.6705 27.3334 19.0112C26.3467 18.3519 25.1867 18 24 18C22.4087 18 20.8826 18.6321 19.7574 19.7574C18.6321 20.8826 18 22.4087 18 24V24ZM27 24C27 24.5933 26.8241 25.1734 26.4944 25.6667C26.1648 26.1601 25.6962 26.5446 25.1481 26.7716C24.5999 26.9987 23.9967 27.0581 23.4147 26.9424C22.8328 26.8266 22.2982 26.5409 21.8787 26.1213C21.4591 25.7018 21.1734 25.1672 21.0576 24.5853C20.9419 24.0033 21.0013 23.4001 21.2284 22.852C21.4554 22.3038 21.8399 21.8352 22.3333 21.5056C22.8266 21.1759 23.4067 21 24 21C24.7957 21 25.5587 21.3161 26.1213 21.8787C26.6839 22.4413 27 23.2044 27 24Z" fill="white"/>
<path id="Vector_2" d="M24 40.755L15.6 32.37L13.5 34.5L24 45L34.5 34.5L32.385 32.385L24 40.755Z" fill="white"/>
<path id="Vector_3" d="M24 7.245L32.37 15.6L34.5 13.5L24 3L13.5 13.5L15.615 15.615L24 7.245Z" fill="white"/>
</g>
</svg>
