<svg width="128" height="123" viewBox="0 0 128 123" fill="none" xmlns="http://www.w3.org/2000/svg">
<path d="M112 23.0625H16C13.8783 23.0625 11.8434 23.8724 10.3431 25.3141C8.84285 26.7558 8 28.7111 8 30.75V92.25C8 94.2889 8.84285 96.2442 10.3431 97.6859C11.8434 99.1276 13.8783 99.9375 16 99.9375H112C114.122 99.9375 116.157 99.1276 117.657 97.6859C119.157 96.2442 120 94.2889 120 92.25V30.75C120 28.7111 119.157 26.7558 117.657 25.3141C116.157 23.8724 114.122 23.0625 112 23.0625V23.0625ZM103.2 30.75L64 56.8106L24.8 30.75H103.2ZM16 92.25V34.2478L61.72 64.6519C62.3896 65.0982 63.1851 65.3374 64 65.3374C64.8149 65.3374 65.6104 65.0982 66.28 64.6519L112 34.2478V92.25H16Z" fill="black"/>
</svg>
