<svg width="181" height="255" viewBox="0 0 181 255" fill="none" xmlns="http://www.w3.org/2000/svg">
<path d="M90.3892 255L16.4721 234.519L0 50.1138H181L164.51 234.49L90.3892 255Z" fill="#264DE4"/>
<path d="M150.394 222.75L164.485 65.1914H90.5V239.323L150.394 222.75Z" fill="#2965F1"/>
<path d="M37.762 133.584L39.7928 156.201H90.5V133.584H37.762Z" fill="#EBEBEB"/>
<path d="M33.6812 87.8083L35.741 110.425H90.5V87.8083H33.6812Z" fill="#EBEBEB"/>
<path d="M90.5001 192.322L90.4008 192.349L65.1649 185.547L63.5517 167.51H40.8053L43.9799 203.021L90.3958 215.882L90.5001 215.853V192.322Z" fill="#EBEBEB"/>
<path d="M42.5971 0H70.0415V11.4551H54.0739V22.9101H70.0415V34.3652H42.5971V0Z" fill="black"/>
<path d="M75.5304 0H102.975V9.9609H87.0071V11.9531H102.975V34.8632H75.5304V24.4042H91.498V22.412H75.5304V0Z" fill="black"/>
<path d="M108.464 0H135.908V9.9609H119.94V11.9531H135.908V34.8632H108.464V24.4042H124.431V22.412H108.464V0Z" fill="black"/>
<path d="M143.093 133.585L147.184 87.8083H90.4216V110.425H122.351L120.289 133.585H90.4216V156.201H118.324L115.694 185.533L90.4216 192.341V215.871L136.874 203.021L137.215 199.2L142.54 139.658L143.093 133.585Z" fill="white"/>
</svg>
