<svg width="127" height="145" viewBox="0 0 127 145" fill="none" xmlns="http://www.w3.org/2000/svg">
<g clip-path="url(#clip0)">
<path d="M113.393 9.0625H13.6071C9.9983 9.0625 6.53727 10.4947 3.98544 13.044C1.43361 15.5933 0 19.051 0 22.6562L0 122.344C0 125.949 1.43361 129.407 3.98544 131.956C6.53727 134.505 9.9983 135.938 13.6071 135.938H113.393C117.002 135.938 120.463 134.505 123.015 131.956C125.566 129.407 127 125.949 127 122.344V22.6562C127 19.051 125.566 15.5933 123.015 13.044C120.463 10.4947 117.002 9.0625 113.393 9.0625V9.0625ZM108.747 96.1106L104.494 114.519C104.278 115.455 103.751 116.29 102.999 116.888C102.247 117.486 101.314 117.812 100.353 117.812C54.9955 117.812 18.1429 81.0782 18.1429 35.6836C18.1766 34.7322 18.5151 33.8167 19.1086 33.0719C19.7021 32.3271 20.5192 31.7922 21.4398 31.546L39.8661 27.2979C40.1804 27.2315 40.5002 27.1946 40.8214 27.1875C41.6437 27.229 42.4399 27.4896 43.1273 27.9423C43.8148 28.3949 44.3684 29.0232 44.7306 29.7618L53.2351 49.586C53.4434 50.1205 53.5594 50.6865 53.5781 51.2598C53.5089 52.5173 52.9492 53.6977 52.019 54.5478L41.2778 63.3271C47.7861 77.1075 58.888 88.1985 72.682 94.7003L81.4699 83.9697C82.3208 83.0404 83.5024 82.4813 84.7612 82.4121C85.335 82.4305 85.9016 82.5464 86.4365 82.7548L106.28 91.2509C107.02 91.6123 107.649 92.1653 108.102 92.8521C108.556 93.539 108.816 94.3346 108.857 95.1562C108.851 95.4772 108.814 95.7969 108.747 96.1106Z" fill="black"/>
</g>
<defs>
<clipPath id="clip0">
<rect width="127" height="145" fill="white"/>
</clipPath>
</defs>
</svg>
