<svg width="181" height="255" viewBox="0 0 181 255" fill="none" xmlns="http://www.w3.org/2000/svg">
<g clip-path="url(#clip0)">
<path d="M90.6135 0C41.6677 0 1.98844 13.6691 0.451882 30.7256H0.226124V221.611C0.148102 222.153 0.000366211 222.757 0.000366211 223.305C0.000366211 223.647 0.195782 223.934 0.226124 224.273C1.76269 241.329 41.4419 254.998 90.3877 254.998C139.334 254.998 179.013 241.329 180.549 224.273H181.001V30.7256H180.776C179.239 13.6691 139.56 0 90.6139 0H90.6135ZM91.7434 14.758C129.687 14.758 160.438 23.6808 160.438 34.5966C160.438 45.5124 129.687 54.4352 91.7434 54.4352C53.8 54.4352 23.0488 45.5124 23.0488 34.5966C23.0488 23.6808 53.8 14.758 91.7434 14.758V14.758ZM29.8279 115.644H54.6845C60.3195 115.644 64.5988 115.946 67.5647 116.612C71.7168 117.532 75.2523 119.282 78.1852 121.693C82.0078 124.802 84.8771 128.709 86.772 133.548C88.6668 138.386 89.7095 144.023 89.7096 150.241C89.7095 155.539 88.9611 160.181 87.6759 164.273C86.3906 168.366 84.7147 171.754 82.7046 174.434C80.6944 177.115 78.5406 179.186 76.1515 180.725C73.7623 182.263 70.9424 183.561 67.5647 184.354C64.1868 185.147 60.197 185.563 55.8143 185.563H29.8279V115.644V115.644ZM102.59 115.644H129.706C135.242 115.644 139.693 116.41 143.038 117.822C146.383 119.234 149.052 121.42 150.947 124.354C152.842 127.289 153.659 130.343 153.659 133.548C153.659 136.53 152.854 139.382 151.173 142.015C149.492 144.648 146.884 146.687 143.49 148.305C147.873 149.543 151.303 151.614 153.659 154.596C156.015 157.578 157.274 161.18 157.274 165.241C157.274 168.509 156.448 171.627 155.015 174.434C153.581 177.242 151.926 179.444 149.817 180.967C147.708 182.49 145.088 183.576 141.908 184.354C138.728 185.131 134.772 185.563 130.158 185.563H102.59V115.644ZM39.3185 123.87V177.338H54.6845C59.4627 177.338 63.2641 176.742 65.9828 175.886C68.7015 175.029 70.9212 173.812 72.536 172.257C74.8098 170.068 76.6905 167.243 77.9592 163.547C79.2279 159.851 79.7669 155.266 79.767 149.999C79.7669 142.702 78.4135 137.224 75.9256 133.306C73.4375 129.388 70.4457 126.654 66.8868 125.322C64.3164 124.37 60.1595 123.87 54.4585 123.87H39.3185V123.87ZM112.081 123.87V144.918H127.672C131.923 144.919 135.092 144.732 136.937 144.193C139.376 143.496 141.125 142.424 142.36 140.806C143.596 139.188 144.168 137.2 144.168 134.758C144.168 132.442 143.739 130.228 142.586 128.467C141.433 126.707 139.757 125.489 137.615 124.838C135.473 124.188 131.749 123.871 126.542 123.871H112.081V123.87ZM112.081 153.144V177.338H130.158C133.256 177.338 135.459 177.076 136.711 176.854C138.919 176.473 140.651 175.807 142.134 174.918C143.617 174.03 144.794 172.745 145.75 171.047C146.705 169.35 147.332 167.462 147.332 165.241C147.332 162.639 146.682 160.386 145.298 158.467C143.914 156.547 141.878 155.131 139.423 154.354C136.968 153.577 133.416 153.144 128.802 153.144H112.081V153.144Z" fill="#00BCF2"/>
</g>
<defs>
<clipPath id="clip0">
<rect width="181" height="255" fill="white"/>
</clipPath>
</defs>
</svg>
